<?xml version="1.0" standalone="no"?>
<!DOCTYPE svg PUBLIC "-//W3C//DTD SVG 20010904//EN"
 "http://www.w3.org/TR/2001/REC-SVG-20010904/DTD/svg10.dtd">
<svg version="1.0" xmlns="http://www.w3.org/2000/svg"
 width="100.000000pt" height="100.000000pt" viewBox="0 0 100.000000 100.000000"
 preserveAspectRatio="xMidYMid meet">

<!-- Fondo circular blanco -->
<circle cx="50" cy="50" r="51" fill="rgba(230,230,230,0.743)"/>

<g transform="translate(0.000000,100.000000) scale(0.100000,-0.100000)"
fill="#b013f9" stroke="none">
<path d="M359 831 c-49 -10 -119 -41 -136 -63 -6 -7 -36 -79 -67 -160 l-56
-146 0 -131 c0 -161 6 -171 100 -171 65 0 100 21 100 60 0 19 7 20 200 20 193
0 200 -1 200 -20 0 -39 35 -60 100 -60 94 0 100 10 100 171 l0 132 -60 152
c-33 84 -69 160 -78 168 -37 33 -105 49 -232 52 -69 2 -146 0 -171 -4z m321
-51 c50 -17 73 -47 105 -135 40 -110 54 -105 -285 -105 -331 0 -324 -2 -295
85 41 119 66 146 157 165 57 12 274 5 318 -10z m-340 -340 c11 -11 20 -29 20
-40 0 -26 -34 -60 -60 -60 -43 0 -120 51 -120 80 0 29 23 40 82 40 45 0 63 -5
78 -20z m474 -2 c15 -24 0 -47 -50 -75 -48 -28 -78 -29 -104 -3 -26 26 -25 55
0 80 17 17 31 20 82 18 45 -2 64 -8 72 -20z"/>
<path d="M46 599 c-30 -23 -34 -60 -10 -84 24 -24 36 -14 60 48 l22 57 -22 0
c-13 0 -35 -9 -50 -21z"/>
<path d="M901 568 c30 -78 35 -81 63 -52 36 36 -3 104 -60 104 l-24 0 21 -52z"/>
</g>
</svg>
