<?xml version="1.0" standalone="no"?>
<!DOCTYPE svg PUBLIC "-//W3C//DTD SVG 20010904//EN"
 "http://www.w3.org/TR/2001/REC-SVG-20010904/DTD/svg10.dtd">
<svg version="1.0" xmlns="http://www.w3.org/2000/svg"
 width="720.000000pt" height="720.000000pt" viewBox="0 0 720.000000 720.000000"
 preserveAspectRatio="xMidYMid meet">

<g transform="translate(0.000000,720.000000) scale(0.100000,-0.100000)"
fill="#FFFFFF" stroke="none">
<path d="M3126 7173 c-8 -40 -24 -184 -31 -291 -4 -55 -13 -98 -20 -106 -8 -7
-38 -16 -67 -20 -124 -16 -386 -96 -565 -172 -57 -24 -107 -44 -112 -44 -5 0
-85 79 -178 175 -92 96 -172 175 -177 175 -27 0 -378 -216 -501 -308 -85 -65
-202 -169 -231 -208 l-25 -33 105 -196 c58 -108 106 -200 106 -203 0 -4 -62
-70 -137 -147 -74 -77 -174 -191 -220 -253 -47 -62 -90 -112 -96 -109 -65 23
-470 118 -477 111 -15 -16 -151 -277 -206 -396 -60 -130 -109 -269 -118 -339
l-7 -46 48 -30 c26 -17 109 -68 183 -113 74 -46 141 -89 149 -96 11 -10 9 -26
-13 -100 -37 -129 -46 -174 -65 -319 l-16 -130 -210 -52 c-116 -29 -218 -52
-227 -53 -17 0 -18 -23 -18 -339 0 -292 3 -352 19 -433 10 -51 25 -109 34
-129 14 -34 18 -36 73 -42 33 -4 133 -9 224 -13 91 -4 170 -11 176 -15 7 -5
19 -49 29 -97 15 -78 89 -314 126 -400 l14 -33 -110 -107 c-61 -59 -140 -136
-177 -170 -38 -35 -68 -68 -68 -73 0 -19 145 -268 236 -404 94 -142 229 -307
277 -338 25 -16 27 -15 220 83 107 55 201 100 210 100 8 0 38 -26 67 -58 76
-83 201 -193 318 -279 56 -42 102 -81 102 -86 0 -6 -27 -107 -60 -224 -33
-116 -60 -221 -60 -232 0 -26 69 -69 304 -188 201 -101 343 -159 465 -188 89
-21 62 -46 208 190 58 94 108 174 113 178 4 5 45 -3 91 -17 119 -36 291 -73
382 -81 67 -6 80 -11 86 -29 5 -11 32 -117 61 -234 l52 -212 310 0 c170 0 342
5 381 11 102 15 224 48 238 65 8 9 13 83 16 217 2 111 6 212 9 224 3 17 14 24
42 28 117 19 265 62 350 102 29 14 59 22 66 20 8 -3 69 -68 136 -144 68 -76
138 -155 157 -175 l34 -38 100 50 c126 64 359 203 463 278 43 31 110 86 148
122 l69 66 -96 199 c-52 110 -95 207 -95 215 0 9 42 53 94 97 52 45 138 132
192 193 55 60 106 110 114 110 9 0 114 -34 235 -76 l220 -75 22 25 c45 52 190
297 268 451 73 144 135 303 135 346 0 9 -77 70 -185 145 -102 71 -185 134
-185 141 0 6 13 48 30 93 34 93 65 212 75 287 4 29 12 56 18 62 7 5 48 14 92
21 44 6 116 17 160 25 44 7 101 16 128 20 l47 6 0 473 0 474 -32 5 c-18 3 -94
13 -168 22 -74 9 -155 19 -180 23 l-44 7 -22 130 c-25 152 -50 250 -99 395
-19 58 -35 112 -35 121 0 9 35 45 79 80 150 122 289 244 290 255 1 16 -138
285 -212 409 -97 164 -183 273 -241 306 -6 4 -103 -33 -216 -82 -113 -49 -208
-88 -212 -86 -3 1 -29 31 -58 67 -64 81 -202 222 -269 275 -27 22 -50 46 -51
54 0 8 38 113 85 233 47 121 83 223 80 228 -18 28 -337 238 -505 332 -80 45
-223 104 -271 113 -42 8 -21 30 -199 -205 -61 -79 -113 -146 -115 -148 -2 -2
-51 14 -109 37 -130 51 -311 104 -433 126 -51 9 -96 22 -102 28 -5 7 -23 91
-40 187 -17 96 -34 187 -37 203 l-6 27 -473 0 -473 0 -6 -27z m223 -547 c21
-12 27 -12 39 1 22 22 31 6 59 -106 20 -81 22 -105 13 -116 -19 -23 -28 -18
-55 33 -39 75 -77 109 -102 94 -35 -22 -46 -175 -24 -311 25 -152 97 -210 131
-105 15 45 4 91 -26 110 -17 12 -24 25 -24 50 0 18 3 35 8 37 4 3 39 8 78 12
l72 7 7 -42 c6 -33 4 -44 -11 -54 -16 -12 -16 -22 -5 -131 9 -96 9 -120 -1
-127 -23 -14 -46 -9 -53 13 -7 21 -7 20 -34 -5 -16 -15 -44 -29 -63 -32 -29
-5 -41 -1 -72 27 -67 58 -107 167 -122 331 -19 215 75 375 185 314z m381 -30
c0 -34 -4 -45 -18 -49 -27 -7 -32 -45 -32 -263 0 -183 1 -195 20 -206 15 -10
20 -24 20 -56 l0 -43 -87 3 -88 3 -3 42 c-3 34 0 42 16 47 11 4 23 17 26 29 3
12 6 115 6 229 0 197 -1 208 -20 218 -15 8 -20 21 -20 50 l0 40 90 0 90 0 0
-44z m272 24 c15 -11 29 -15 34 -10 23 23 34 -10 42 -119 7 -106 6 -114 -12
-127 -26 -18 -31 -11 -45 61 -21 113 -76 145 -118 70 -48 -86 -68 -323 -33
-398 15 -31 49 -44 78 -28 10 5 32 35 48 66 16 30 32 55 35 55 3 0 14 -9 23
-19 22 -24 12 -62 -34 -134 -74 -118 -177 -113 -236 11 -75 158 -16 502 99
572 41 25 87 25 119 0z m-1057 -69 c22 -10 55 -34 73 -55 133 -152 169 -490
61 -581 -103 -86 -243 45 -299 279 -43 178 -13 324 74 362 40 17 43 17 91 -5z
m1462 -1 c55 -33 77 -90 77 -200 0 -259 -162 -503 -296 -447 -133 55 -108 425
38 587 72 80 122 97 181 60z m-1875 -160 c14 -33 14 -41 2 -51 -8 -6 -14 -17
-14 -24 0 -17 157 -396 170 -409 17 -17 51 26 61 79 5 26 6 65 3 86 -7 42 0
48 32 25 24 -18 68 -231 50 -245 -13 -9 -218 -91 -229 -91 -4 0 -15 16 -23 35
-11 28 -12 39 -2 55 11 16 3 42 -51 177 -100 250 -102 253 -122 253 -18 0 -49
46 -49 73 0 11 119 71 150 76 3 0 12 -17 22 -39z m2455 -65 c19 -19 43 -35 53
-35 11 0 21 -3 23 -7 3 -5 -12 -55 -32 -113 -30 -88 -40 -106 -58 -108 -22 -3
-23 -1 -23 75 0 93 -13 119 -53 109 -77 -19 -226 -325 -196 -403 17 -46 80
-21 114 46 14 27 15 38 5 56 -10 18 -9 28 4 54 9 17 21 31 27 31 8 0 127 -56
137 -65 10 -9 -35 -75 -52 -77 -15 -2 -35 -30 -73 -103 -29 -55 -54 -104 -55
-108 -2 -5 -16 -3 -32 4 -21 10 -27 18 -23 35 3 20 2 21 -25 12 -61 -22 -122
23 -133 97 -18 117 80 351 193 459 87 84 144 96 199 41z m-2730 -77 c126 -63
263 -301 263 -457 0 -97 -55 -158 -131 -148 -145 19 -329 285 -329 474 0 72
10 98 48 130 35 30 91 30 149 1z m3042 -109 c58 -40 110 -75 114 -79 4 -4 -9
-51 -29 -104 -30 -78 -42 -98 -61 -102 -13 -4 -25 -5 -27 -3 -2 2 1 27 7 55
16 76 -7 134 -54 134 -22 0 -95 -103 -84 -119 11 -18 26 -12 58 24 34 38 35
39 57 25 11 -7 -2 -32 -70 -134 -46 -69 -87 -126 -90 -126 -3 0 -11 4 -19 9
-11 7 -11 16 4 54 16 42 15 67 -3 67 -4 0 -32 -36 -61 -80 -44 -65 -52 -82
-42 -94 31 -38 99 -25 188 34 l32 21 7 -26 c6 -24 -3 -35 -77 -105 -46 -44
-88 -79 -92 -80 -6 0 -141 90 -235 156 -2 1 7 18 20 38 14 22 31 36 44 36 27
0 31 5 153 183 125 183 126 185 111 202 -9 10 -6 22 12 49 13 20 25 36 27 36
2 0 52 -32 110 -71z m-3369 -66 c14 -19 19 -35 15 -51 -7 -27 1 -38 218 -313
59 -75 107 -140 107 -145 0 -5 -11 -17 -24 -26 -22 -16 -26 -14 -209 118 -103
74 -189 134 -192 134 -3 0 43 -61 101 -136 93 -117 110 -135 130 -130 17 5 28
-1 44 -24 12 -17 20 -34 18 -39 -2 -5 -23 -26 -48 -45 l-45 -36 -27 31 c-20
23 -25 39 -22 59 5 22 -12 49 -107 171 -145 187 -157 200 -183 194 -15 -3 -28
5 -46 27 l-24 31 44 39 c25 21 53 41 62 44 12 3 59 -24 140 -83 68 -49 129
-93 136 -97 7 -4 -17 31 -54 78 -54 69 -73 86 -94 86 -29 0 -79 55 -64 70 17
17 89 69 96 70 4 0 16 -12 28 -27z m3693 -183 c4 -4 -20 -63 -53 -131 -99
-198 -99 -203 0 -88 45 52 59 75 55 92 -3 14 4 32 20 50 l25 28 39 -30 c66
-52 68 -58 36 -91 -20 -21 -35 -28 -50 -24 -19 5 -51 -26 -200 -193 -98 -109
-180 -200 -182 -202 -6 -9 -53 23 -53 36 0 7 32 79 71 160 90 187 120 253 115
253 -3 0 -52 -53 -111 -117 -83 -93 -105 -123 -103 -144 2 -26 -31 -79 -51
-79 -6 0 -32 19 -57 42 l-45 41 28 29 c18 18 35 27 51 26 21 -3 51 25 174 161
128 142 148 168 143 189 -5 19 1 32 21 53 l27 29 46 -42 c25 -23 50 -44 54
-48z m-1696 -86 c521 -66 1033 -347 1376 -754 273 -325 448 -718 502 -1128 17
-130 20 -418 5 -542 -89 -733 -538 -1373 -1195 -1704 -268 -134 -524 -204
-833 -228 -680 -51 -1359 229 -1809 747 -285 329 -459 714 -524 1160 -20 131
-17 454 5 592 72 463 268 865 586 1197 358 374 837 612 1340 666 197 21 347
20 547 -6z m-2280 -59 c79 -51 92 -64 93 -87 0 -35 -5 -35 -70 -1 -60 31 -127
36 -143 12 -17 -27 36 -121 112 -198 107 -109 216 -159 251 -116 15 18 6 74
-21 127 -24 48 -24 48 10 48 71 0 133 -182 86 -253 -18 -28 -61 -47 -106 -47
-113 0 -318 160 -399 311 -53 101 -42 191 28 222 15 6 33 20 40 30 8 10 17 17
20 15 4 -2 48 -30 99 -63z m4277 -162 c43 -51 76 -96 74 -101 -1 -4 -28 -42
-58 -84 -46 -65 -60 -77 -84 -77 -23 -1 -27 2 -21 17 36 82 45 124 33 150 -20
41 -48 38 -101 -8 -26 -23 -47 -46 -47 -51 0 -22 33 -19 66 6 28 21 38 24 49
15 8 -7 15 -16 15 -20 0 -11 -207 -184 -225 -188 -28 -6 -29 28 -1 57 23 24
36 71 20 71 -17 0 -154 -125 -152 -139 2 -9 20 -24 40 -34 35 -17 42 -17 95
-3 32 8 66 18 76 21 14 6 17 2 17 -21 0 -27 -9 -34 -106 -84 l-106 -55 -34 40
c-90 105 -144 173 -144 182 0 17 58 53 75 47 20 -8 42 8 210 150 146 124 145
123 145 153 0 29 61 77 76 60 6 -7 46 -53 88 -104z m-4552 -120 c68 -29 87
-41 91 -60 6 -30 2 -32 -41 -22 -20 5 -51 9 -68 9 -34 0 -84 -33 -84 -55 0
-19 106 -99 120 -90 18 11 11 32 -24 63 -30 26 -33 32 -22 48 9 11 18 14 27 9
44 -27 229 -168 229 -175 0 -4 -6 -12 -13 -18 -10 -9 -24 -6 -55 9 -39 19 -62
19 -62 -1 0 -12 136 -110 153 -110 46 0 50 81 7 159 -36 65 -37 71 -6 71 21 0
64 -43 164 -162 12 -14 4 -29 -68 -127 -45 -61 -86 -111 -92 -111 -20 0 -69
43 -64 56 8 21 -27 53 -192 174 -125 91 -159 111 -180 107 -26 -5 -82 27 -82
46 0 16 151 217 163 217 6 0 51 -17 99 -37z m4771 -170 c81 -128 84 -161 25
-228 -53 -61 -113 -90 -190 -91 -67 -1 -67 -1 -101 -45 -46 -61 -87 -122 -87
-131 0 -21 63 -13 290 37 139 31 258 59 265 62 16 5 49 -52 42 -71 -3 -7 -104
-83 -225 -169 -121 -87 -223 -164 -226 -172 -10 -28 24 -28 118 -1 283 84 317
97 326 121 5 13 18 26 29 29 12 3 30 8 40 11 17 5 23 -4 41 -62 11 -37 23 -75
25 -84 4 -11 -6 -19 -35 -28 -34 -10 -43 -10 -56 4 -8 8 -18 15 -22 15 -16 0
-408 -123 -415 -130 -18 -16 5 -49 44 -64 21 -9 64 -16 94 -16 60 0 63 -4 37
-36 -15 -19 -31 -23 -132 -29 l-116 -7 -39 129 c-21 70 -49 151 -62 178 -30
66 -29 73 12 91 32 13 38 13 51 -1 17 -16 18 -16 81 27 l41 28 -15 40 c-18 45
-20 46 -91 25 -43 -13 -52 -20 -52 -39 0 -16 -10 -27 -36 -40 -20 -9 -38 -16
-39 -14 -2 2 -25 47 -53 100 l-49 97 45 58 c25 32 66 84 90 116 25 31 42 60
39 63 -3 3 -37 -15 -76 -40 -61 -39 -71 -50 -71 -74 0 -28 -3 -31 -62 -60 -7
-3 -98 129 -98 141 0 3 16 15 35 27 28 17 39 19 50 10 17 -14 15 -16 225 118
167 105 183 118 173 136 -7 10 45 56 64 56 6 0 36 -39 66 -87z m-4988 -132
c80 -26 90 -32 93 -54 l3 -26 -69 6 c-128 11 -105 -8 202 -172 95 -51 111 -57
129 -46 16 11 25 10 53 -5 19 -10 34 -22 34 -26 0 -6 -67 -135 -77 -147 -1 -2
-21 4 -43 14 -28 13 -39 23 -35 34 2 9 1 21 -3 27 -9 16 -385 223 -394 218
-13 -8 5 -45 44 -89 40 -45 40 -45 16 -54 -28 -10 -26 -11 -116 63 l-71 60 41
75 c23 42 51 93 63 113 11 21 25 38 30 38 6 0 51 -13 100 -29z m-143 -546
c153 -27 298 -102 353 -183 27 -39 34 -107 15 -143 -18 -33 -89 -62 -165 -67
-166 -10 -414 100 -470 209 -44 84 7 167 117 188 61 12 57 12 150 -4z m-122
-385 c15 -28 7 -36 -45 -43 -43 -6 -85 -25 -85 -38 0 -7 69 -20 285 -54 55 -9
112 -18 128 -20 18 -3 34 2 47 15 16 16 26 18 57 12 24 -5 37 -14 36 -23 -1
-8 -7 -47 -13 -86 -10 -65 -14 -73 -33 -73 -40 0 -63 11 -72 33 -9 20 -31 26
-230 58 -121 20 -222 35 -224 33 -8 -8 44 -56 82 -75 42 -22 46 -33 18 -49
-15 -7 -40 -2 -108 22 -48 17 -91 34 -95 37 -4 4 2 63 14 133 l21 127 81 4
c45 1 91 4 103 5 14 1 27 -6 33 -18z m5724 -147 c3 -16 6 -50 8 -77 3 -58 19
-50 -197 -102 -158 -39 -159 -39 -107 -45 28 -4 110 -10 181 -14 148 -8 138
-1 143 -105 l3 -65 -39 -3 c-28 -2 -42 1 -48 12 -11 20 -59 20 -283 1 -162
-13 -171 -15 -190 -40 -15 -18 -30 -25 -56 -25 l-36 0 -7 61 c-11 113 -11 116
32 123 30 5 40 2 53 -15 15 -20 21 -21 148 -14 72 4 129 10 126 14 -4 3 -88
13 -188 21 l-182 15 -3 31 -3 30 200 49 c110 27 199 50 197 52 -1 2 -67 -3
-146 -11 -122 -11 -145 -16 -159 -33 -9 -11 -32 -23 -53 -26 -42 -6 -48 4 -48
84 0 46 1 47 37 54 29 5 40 3 50 -11 11 -15 25 -18 71 -16 100 4 382 31 392
37 6 3 10 12 10 20 0 12 20 19 72 24 11 0 18 -9 22 -26z m-5901 -223 c4 -16
14 -20 49 -21 23 0 124 -4 223 -8 150 -6 188 -11 227 -28 103 -46 104 -168 2
-219 -36 -17 -58 -19 -270 -16 -203 3 -232 2 -237 -12 -5 -11 -20 -16 -52 -16
l-45 0 0 69 c0 93 4 101 50 101 28 0 41 -6 52 -22 15 -22 21 -23 214 -26 151
-2 205 0 224 10 53 29 27 83 -44 92 -22 3 -116 8 -208 12 -161 5 -167 5 -185
-15 -12 -14 -29 -21 -55 -21 l-38 0 0 70 0 70 44 0 c35 0 45 -4 49 -20z m5685
-266 c98 -20 149 -43 200 -89 72 -64 65 -146 -15 -199 -167 -110 -552 -44
-613 105 -35 84 36 159 185 192 46 11 171 6 243 -9z m-5564 -113 c17 -19 16
-20 -31 -44 -26 -14 -57 -35 -68 -47 l-20 -23 80 7 c156 13 350 37 373 46 12
5 22 16 22 24 0 12 77 33 87 23 2 -3 7 -43 10 -90 l6 -86 -37 -7 c-31 -5 -41
-3 -58 16 -17 18 -27 21 -62 16 -22 -3 -104 -13 -181 -21 -77 -8 -160 -17
-185 -21 l-45 -6 23 -18 c12 -10 47 -24 77 -31 59 -13 61 -15 41 -42 -13 -16
-24 -18 -109 -11 -52 3 -99 9 -105 13 -10 7 -36 251 -27 260 5 5 166 57 186
60 3 1 14 -8 23 -18z m490 -333 c9 -46 16 -86 16 -90 0 -3 -18 -9 -41 -13 -32
-6 -43 -3 -53 10 -12 16 -25 15 -212 -24 -246 -52 -233 -48 -244 -76 -6 -15
-20 -25 -45 -29 -21 -4 -40 -5 -43 -2 -3 3 -13 42 -23 86 l-17 80 41 11 c34 9
43 8 53 -5 16 -22 39 -20 199 14 77 17 162 35 189 40 53 11 76 25 76 46 0 8
12 16 28 20 15 3 32 7 37 9 6 2 13 4 16 4 4 1 14 -36 23 -81z m4683 62 c7 0
18 -12 25 -27 12 -26 24 -30 232 -76 120 -26 221 -45 224 -42 8 8 -29 46 -75
75 -42 27 -42 28 -23 45 19 17 23 17 111 -20 50 -21 93 -43 95 -49 2 -6 -9
-65 -24 -131 l-27 -120 -103 1 c-79 0 -106 4 -113 15 -16 25 -10 39 19 39 38
0 98 18 111 33 8 10 -16 19 -117 40 -70 15 -169 37 -220 49 l-94 21 -20 -20
c-17 -18 -25 -19 -57 -11 -20 6 -37 11 -39 13 -3 2 25 136 34 164 3 8 12 11
27 7 12 -3 27 -6 34 -6z m-4621 -295 c13 -38 24 -75 24 -82 0 -6 -16 -17 -36
-23 -30 -10 -38 -9 -53 4 -16 15 -24 14 -97 -8 -159 -48 -339 -108 -348 -117
-14 -13 39 -29 95 -29 41 0 49 -3 49 -19 0 -29 -19 -38 -95 -45 -38 -4 -82 -9
-97 -12 -26 -5 -27 -3 -68 122 -22 69 -40 127 -38 129 2 1 42 23 90 49 73 39
91 45 108 36 28 -15 25 -21 -16 -50 -38 -25 -68 -63 -62 -78 1 -5 99 23 215
60 194 63 213 71 219 94 7 27 36 44 68 41 15 -1 25 -20 42 -72z m4760 -26
c161 -49 299 -149 322 -233 40 -143 -126 -205 -349 -131 -230 77 -358 233
-273 334 14 17 40 35 57 40 59 17 171 12 243 -10z m-4679 -199 c35 -21 48 -53
41 -99 -3 -22 -1 -27 13 -24 13 4 37 -25 27 -32 -2 -1 -47 -32 -101 -69 -91
-63 -101 -67 -125 -57 l-25 12 45 47 c67 69 86 120 56 150 -18 18 -73 14 -98
-6 -19 -16 -23 -30 -27 -98 -2 -44 -11 -92 -19 -109 -47 -91 -236 -155 -323
-110 -32 16 -41 33 -41 77 0 16 -7 36 -15 44 -8 9 -15 18 -15 22 1 11 154 112
170 112 8 0 21 -4 29 -9 12 -8 7 -19 -28 -56 -36 -39 -42 -51 -39 -83 3 -34 6
-37 35 -40 53 -5 73 24 73 109 0 45 6 84 16 106 48 101 260 169 351 113z
m4381 -87 c4 -28 4 -28 165 -117 221 -122 234 -128 255 -115 14 9 25 8 50 -5
18 -9 32 -21 32 -27 0 -21 -94 -179 -122 -206 -39 -37 -102 -37 -174 0 -56 28
-120 93 -130 131 -6 27 -10 28 -137 46 -60 9 -81 9 -93 -1 -12 -9 -21 -8 -49
7 -19 10 -35 22 -35 27 0 12 39 85 49 91 5 3 67 -3 137 -14 195 -30 199 -28
80 34 -63 33 -71 35 -91 22 -19 -13 -25 -12 -53 6 -18 11 -32 22 -32 24 0 7
51 106 68 132 14 22 15 22 46 4 17 -10 32 -28 34 -39z m-4254 -158 c17 -25 16
-25 -141 -207 -87 -100 -151 -178 -143 -173 87 53 250 160 267 175 13 11 20
26 17 37 -4 12 4 24 25 36 41 24 45 22 76 -25 15 -23 55 -75 89 -116 l61 -74
-34 -30 c-25 -22 -36 -27 -46 -18 -19 16 -36 5 -189 -118 -179 -144 -188 -153
-182 -178 4 -15 -3 -27 -25 -43 -16 -12 -34 -21 -38 -19 -13 4 -101 115 -101
126 0 4 11 19 24 31 19 17 31 21 53 17 26 -6 46 7 183 117 85 69 163 133 173
144 20 23 16 43 -14 61 -24 15 -32 11 -271 -144 -103 -67 -127 -88 -130 -109
-2 -16 -15 -33 -35 -46 l-32 -20 -35 56 c-20 30 -36 60 -36 66 0 7 47 65 105
129 58 65 105 121 105 124 0 3 -40 -22 -90 -55 -72 -47 -90 -64 -90 -83 0 -17
-10 -30 -34 -44 l-34 -20 -36 54 c-20 29 -36 56 -36 58 0 2 16 14 35 26 28 17
39 19 50 10 18 -15 27 -10 276 150 112 71 207 130 210 130 4 0 14 -11 23 -25z
m4100 -168 c103 -55 129 -78 109 -98 -8 -8 -23 -6 -57 5 -87 30 -166 13 -166
-35 0 -24 51 -79 73 -79 9 0 48 16 88 35 84 40 107 42 168 15 143 -65 224
-208 156 -275 -13 -14 -33 -25 -44 -25 -14 0 -18 -5 -14 -19 9 -35 -15 -31
-104 17 -68 36 -89 53 -91 71 -4 22 -1 23 30 17 105 -23 148 -15 148 27 0 28
-9 41 -38 56 -19 10 -34 7 -101 -24 -43 -19 -91 -35 -107 -35 -66 0 -196 96
-236 173 -38 75 -20 147 43 169 22 7 27 13 20 22 -10 12 3 36 19 36 3 0 50
-24 104 -53z m-310 -649 c-70 -61 -65 -61 -97 -6 -16 27 -27 51 -25 52 2 1 25
21 52 45 l48 44 30 -51 29 -51 -37 -33z m-3384 41 l45 -40 -30 -25 c-56 -47
-60 -47 -109 -6 -24 20 -45 42 -45 48 -1 12 68 64 84 64 5 -1 30 -19 55 -41z
m2935 -35 c119 -56 218 -261 171 -353 -20 -38 -70 -71 -109 -71 -97 0 -232
160 -245 289 -10 110 86 181 183 135z m-2477 -118 c36 -33 37 -37 37 -103 0
-57 -5 -79 -33 -136 -19 -38 -52 -87 -74 -110 -36 -37 -39 -45 -30 -69 8 -22
6 -30 -12 -47 -31 -29 -43 -26 -56 13 -8 26 -19 35 -50 45 -104 31 -125 142
-55 282 51 100 122 159 193 159 34 0 49 -6 80 -34z m2176 -206 c42 -88 79
-160 82 -160 2 0 31 14 64 30 33 17 62 30 65 30 4 0 35 -67 35 -77 0 -6 -191
-96 -195 -91 -6 6 -195 401 -193 403 13 10 45 24 54 25 6 0 45 -72 88 -160z
m-2011 128 c16 -12 13 -24 -38 -157 -30 -79 -55 -156 -55 -171 0 -33 21 -53
52 -48 28 4 50 45 112 208 24 63 50 116 58 118 7 1 22 -4 33 -12 18 -13 18
-17 -25 -132 -63 -171 -84 -215 -118 -247 -36 -35 -86 -38 -134 -10 -75 44
-74 100 7 311 59 157 68 169 108 140z m1766 -205 c30 -82 58 -158 62 -169 l8
-22 67 24 c37 14 70 21 74 17 4 -4 12 -22 18 -40 l10 -31 -100 -37 c-55 -20
-103 -33 -108 -28 -8 9 -150 400 -150 413 0 9 22 17 50 19 11 1 31 -42 69
-146z m-1487 108 c8 -7 -108 -420 -121 -434 -9 -9 -61 9 -61 21 0 9 62 230 85
302 8 25 19 64 25 88 10 39 13 42 38 36 15 -4 30 -9 34 -13z m1323 -55 c55
-57 85 -143 85 -243 0 -114 -42 -173 -124 -173 -79 0 -141 66 -172 182 -43
164 6 278 119 278 46 0 54 -3 92 -44z m-1220 21 c3 -7 -11 -88 -30 -181 -19
-93 -34 -170 -32 -172 2 -2 31 -10 66 -18 35 -8 65 -17 68 -20 10 -10 -8 -76
-21 -76 -17 0 -197 38 -202 42 -2 2 4 35 12 73 26 126 74 357 74 361 0 11 61
2 65 -9z m241 -40 c1 -1 -6 -74 -17 -162 -25 -216 -26 -205 14 -205 17 0 49
-3 70 -6 35 -6 37 -8 37 -45 0 -21 -3 -40 -7 -42 -11 -6 -200 17 -208 25 -6 6
32 408 41 437 3 9 14 12 36 7 17 -3 33 -7 34 -9z m656 -7 c24 -18 58 -76 58
-97 0 -10 -43 -33 -60 -33 -6 0 -10 5 -10 12 0 20 -32 48 -56 48 -42 0 -57
-39 -52 -134 5 -98 28 -149 70 -154 31 -4 58 29 58 70 0 26 2 28 28 22 40 -10
42 -12 42 -50 0 -69 -56 -134 -115 -134 -77 0 -136 79 -156 210 -16 104 0 178
47 225 29 29 42 35 78 35 28 0 52 -7 68 -20z m-276 -205 c28 -110 54 -212 57
-227 7 -27 6 -28 -32 -28 -39 0 -39 1 -51 50 l-12 50 -54 0 -53 0 -14 -47
c-13 -45 -16 -48 -50 -51 -21 -2 -37 0 -37 5 0 14 110 407 120 431 8 19 17 23
43 20 l32 -3 51 -200z"/>
<path d="M2876 6438 c-44 -63 13 -338 86 -415 46 -49 88 -16 88 70 -1 60 -34
202 -63 269 -41 93 -81 120 -111 76z"/>
<path d="M4290 6418 c-44 -60 -81 -186 -87 -293 -6 -103 6 -133 48 -122 47 12
105 138 130 283 27 155 -22 227 -91 132z"/>
<path d="M2170 6160 c-30 -19 -17 -93 33 -193 57 -114 112 -187 157 -209 32
-16 35 -16 53 0 15 13 17 25 12 62 -10 73 -90 223 -154 291 -57 59 -73 67
-101 49z"/>
<path d="M2107 4540 c-21 -4 -50 -16 -65 -27 l-27 -20 -3 -207 -2 -206 55 0
55 0 0 -35 0 -35 200 0 200 0 0 45 c0 60 21 72 116 67 l72 -4 6 -231 c3 -128
9 -356 14 -508 l7 -275 28 -43 c16 -24 42 -50 59 -59 17 -10 51 -34 77 -55 25
-21 62 -42 81 -48 22 -7 181 -9 441 -7 l405 3 59 30 c40 20 69 45 90 74 l30
43 -4 295 -3 294 38 -7 c80 -14 80 -15 87 -100 4 -42 7 -106 7 -141 l0 -63 55
0 55 0 0 -35 0 -35 178 2 177 3 5 127 c4 108 8 131 26 155 23 31 80 73 100 73
14 0 21 -93 27 -346 5 -190 19 -236 91 -282 22 -14 56 -39 74 -54 67 -57 90
-62 302 -62 l195 -1 3 54 c2 30 -2 59 -7 64 -6 6 -11 30 -11 53 l0 42 -44 -5
c-29 -4 -46 -1 -51 8 -13 20 -23 480 -11 507 12 27 46 47 99 57 36 7 37 8 37
54 0 25 -3 83 -7 129 l-6 82 -38 0 c-37 0 -38 1 -41 43 l-3 42 -365 -2 c-219
-2 -387 -7 -420 -14 -69 -14 -168 -60 -199 -93 l-24 -25 -34 29 c-18 17 -56
41 -83 55 -90 46 -149 55 -365 57 l-200 1 172 7 c95 4 175 9 178 11 2 3 5 73
6 156 1 173 -8 207 -64 242 -20 12 -39 31 -42 42 -4 11 -24 31 -45 45 -33 22
-52 26 -142 30 -205 7 -1564 12 -1601 4z m1370 -440 c4 -16 14 -20 53 -20 l48
0 4 -40 4 -40 -139 0 -138 0 6 -127 c9 -181 6 -173 65 -173 l50 0 0 -35 c0
-28 4 -35 20 -35 19 0 20 -7 20 -148 0 -194 1 -192 -126 -192 l-94 0 0 415 0
415 111 0 c102 0 111 -2 116 -20z"/>
<path d="M2011 3664 c0 -207 -3 -340 -9 -346 -14 -14 -79 -27 -131 -28 l-44 0
6 -107 c4 -58 7 -130 7 -160 l0 -53 50 0 c46 0 50 -2 50 -24 0 -57 -6 -56 224
-56 240 0 270 7 322 76 l29 37 3 281 c2 155 0 359 -3 454 l-7 172 -44 0 -44 0
0 45 0 45 -205 0 -206 0 2 -336z"/>
<path d="M5983 5168 c-55 -35 -61 -42 -52 -59 6 -11 22 -24 36 -30 32 -12 87
13 117 53 16 23 18 32 8 53 -16 34 -36 31 -109 -17z"/>
<path d="M6117 4783 c-52 -14 -57 -18 -51 -37 10 -32 10 -32 69 9 75 51 75 52
-18 28z"/>
<path d="M864 4521 c-28 -12 -38 -39 -22 -60 51 -65 245 -140 364 -141 99 0
112 53 27 109 -89 59 -314 115 -369 92z"/>
<path d="M6147 3500 c-62 -16 -79 -28 -75 -57 4 -36 56 -61 165 -80 158 -27
309 -2 301 50 -4 29 -58 63 -121 77 -74 16 -225 21 -270 10z"/>
<path d="M5950 2807 c-14 -7 -26 -20 -28 -28 -5 -29 48 -78 121 -113 190 -90
343 -101 323 -23 -19 78 -339 204 -416 164z"/>
<path d="M6039 2336 c-17 -36 -3 -74 34 -96 44 -27 92 -26 111 2 15 21 14 24
-2 39 -9 9 -43 30 -75 48 l-57 31 -11 -24z"/>
<path d="M4840 1541 c-17 -32 -12 -65 21 -130 34 -67 82 -111 122 -111 84 0
71 122 -23 221 -30 31 -44 39 -73 39 -26 0 -39 -6 -47 -19z"/>
<path d="M2319 1447 c-42 -28 -99 -136 -99 -188 0 -24 7 -42 21 -55 22 -19 22
-19 14 4 -5 16 -1 29 11 43 23 26 29 24 44 -11 l13 -31 23 22 c31 30 74 123
74 162 0 66 -47 91 -101 54z"/>
<path d="M4099 1231 c-21 -17 -24 -28 -23 -83 1 -70 34 -162 65 -178 32 -18
68 -11 85 15 33 50 -1 204 -54 245 -31 25 -44 25 -73 1z"/>
<path d="M3518 1055 l-15 -65 32 0 32 0 -14 62 c-8 35 -16 64 -17 65 -1 2 -9
-27 -18 -62z"/>
</g>
</svg>
