<?xml version="1.0" standalone="no"?>
<!DOCTYPE svg PUBLIC "-//W3C//DTD SVG 20010904//EN"
 "http://www.w3.org/TR/2001/REC-SVG-20010904/DTD/svg10.dtd">
<svg version="1.0" xmlns="http://www.w3.org/2000/svg"
 width="512.000000pt" height="512.000000pt" viewBox="0 0 512.000000 512.000000"
 preserveAspectRatio="xMidYMid meet">

<g transform="translate(0.000000,512.000000) scale(0.100000,-0.100000)"
fill="#BDC1CA" stroke="none">
<path d="M2380 5114 c-19 -2 -78 -9 -130 -14 -330 -36 -695 -160 -990 -336
-375 -224 -680 -529 -904 -904 -175 -292 -291 -632 -338 -990 -16 -123 -16
-497 0 -620 82 -623 356 -1150 820 -1581 256 -239 575 -425 922 -539 274 -91
491 -124 800 -124 228 0 329 9 530 50 689 141 1304 583 1674 1204 175 292 291
632 338 990 16 123 16 497 0 620 -47 358 -163 698 -338 990 -224 375 -529 680
-904 904 -289 173 -634 291 -980 336 -88 12 -438 21 -500 14z m445 -215 c781
-81 1496 -586 1849 -1304 163 -331 237 -657 237 -1035 0 -96 -5 -215 -11 -265
-66 -551 -305 -1035 -703 -1421 -380 -370 -843 -591 -1372 -654 -116 -14 -414
-14 -530 0 -529 63 -992 284 -1372 654 -398 386 -637 870 -703 1421 -14 116
-14 414 0 530 63 527 283 990 650 1369 518 534 1207 783 1955 705z"/>
<path d="M2425 4684 c-773 -59 -1432 -503 -1778 -1199 -141 -284 -210 -588
-210 -925 0 -126 5 -222 17 -300 71 -466 275 -870 606 -1200 330 -331 734
-535 1200 -606 156 -24 444 -24 600 0 465 71 870 275 1200 606 331 330 535
734 606 1200 24 156 24 444 0 600 -71 465 -275 870 -606 1200 -327 328 -740
537 -1190 604 -108 16 -356 27 -445 20z m479 -233 c513 -94 970 -398 1264
-841 55 -84 172 -304 172 -326 0 -7 -44 1 -117 23 -1065 310 -2261 310 -3326
0 -73 -22 -117 -30 -117 -23 0 22 117 242 172 326 243 366 590 634 998 771
123 41 211 62 355 84 135 21 447 14 599 -14z m-109 -1121 c319 -14 528 -37
820 -91 234 -43 317 -63 327 -79 6 -12 154 -632 170 -713 2 -14 -19 -27 -100
-62 -540 -233 -969 -692 -1166 -1245 l-34 -95 -252 0 -252 0 -34 95 c-196 553
-627 1012 -1166 1245 -81 35 -102 48 -100 62 16 83 164 701 171 713 4 8 23 18
42 22 398 87 732 133 1079 148 249 10 258 10 495 0z m-1845 -228 c0 -11 -141
-606 -144 -609 -1 -2 -39 5 -84 14 l-82 17 0 81 c0 95 13 216 37 337 l16 88
121 39 c137 44 136 44 136 33z m3361 -35 l116 -37 16 -88 c24 -121 37 -242 37
-337 l0 -81 -82 -17 c-45 -9 -83 -16 -84 -14 -4 3 -144 598 -144 610 0 5 6 7
13 4 6 -2 64 -21 128 -40z m-3441 -813 c343 -114 612 -294 856 -572 169 -193
314 -461 389 -717 30 -103 61 -272 53 -281 -8 -8 -172 37 -282 77 -49 18 -136
56 -193 85 -546 280 -922 790 -1028 1393 l-12 73 41 -6 c22 -4 102 -27 176
-52z m3584 -16 c-129 -744 -675 -1340 -1402 -1535 -52 -13 -96 -22 -100 -19
-8 9 23 178 53 281 87 301 240 564 461 795 235 245 504 411 824 509 189 57
180 59 164 -31z m-1695 -1420 c0 -13 -6 -57 -12 -98 l-12 -75 -175 0 -175 0
-12 75 c-6 41 -12 85 -12 98 l-1 22 200 0 200 0 -1 -22z"/>
<path d="M2412 3120 c-322 -87 -504 -421 -403 -741 53 -167 205 -318 376 -372
98 -31 252 -31 350 0 173 54 324 205 378 378 31 98 31 252 0 350 -54 171 -204
323 -372 376 -96 31 -236 35 -329 9z m285 -212 c248 -91 317 -422 127 -612
-146 -146 -382 -146 -528 0 -146 146 -146 382 0 528 106 106 256 138 401 84z"/>
</g>
</svg>
